<?xml version="1.0" standalone="no"?>
<!DOCTYPE svg PUBLIC "-//W3C//DTD SVG 20010904//EN"
 "http://www.w3.org/TR/2001/REC-SVG-20010904/DTD/svg10.dtd">
<svg version="1.0" xmlns="http://www.w3.org/2000/svg"
 width="1145.000000pt" height="1145.000000pt" viewBox="0 0 1145.000000 1145.000000"
 preserveAspectRatio="xMidYMid meet">
<metadata>
Created by potrace 1.14, written by Peter Selinger 2001-2017
</metadata>
<g transform="translate(0.000000,1145.000000) scale(0.100000,-0.100000)"
fill="#000000" stroke="none">
<path d="M8790 10590 l0 -500 -505 0 -505 0 0 -305 0 -305 510 0 510 0 0 -500
0 -500 315 0 315 0 0 500 0 500 505 0 505 0 0 305 0 305 -510 0 -510 0 0 500
0 500 -315 0 -315 0 0 -500z"/>
<path d="M4237 9534 c-1 -1 -33 -5 -72 -8 -603 -58 -1069 -180 -1488 -392
-263 -132 -442 -254 -637 -432 -323 -295 -558 -661 -674 -1049 -30 -99 -63
-250 -72 -324 -3 -30 -8 -57 -10 -61 -7 -11 -18 -253 -18 -388 0 -123 10 -331
18 -380 3 -14 7 -47 11 -74 16 -124 70 -328 118 -442 228 -540 589 -909 1176
-1203 250 -126 488 -216 1147 -436 515 -173 696 -240 849 -319 309 -158 524
-374 586 -586 22 -73 18 -377 -5 -465 -92 -348 -360 -560 -811 -642 -66 -12
-154 -17 -330 -17 -213 -1 -253 2 -355 22 -327 66 -608 178 -890 355 -181 113
-316 223 -504 409 l-100 98 -150 -154 c-83 -85 -351 -358 -596 -607 -245 -248
-478 -486 -519 -528 l-73 -76 98 -92 c105 -99 303 -261 419 -343 202 -142 537
-320 805 -428 445 -178 981 -305 1415 -337 44 -3 100 -8 125 -11 49 -6 553 -6
610 0 19 2 71 7 115 11 81 7 100 9 190 20 61 8 77 10 185 29 278 49 543 124
785 222 114 47 388 185 416 210 8 8 19 14 23 14 10 0 149 94 241 163 292 222
536 509 709 837 141 269 245 615 272 910 3 36 8 72 11 80 2 8 6 123 8 255 4
279 -6 397 -46 593 -113 555 -501 1062 -1092 1426 -294 181 -599 304 -1587
638 -195 66 -410 142 -478 169 -306 122 -508 251 -614 391 -41 54 -96 174
-107 232 -12 63 -7 350 7 391 41 126 108 234 201 325 221 217 525 312 976 304
307 -5 547 -66 840 -211 241 -120 357 -203 537 -383 l128 -127 56 61 c31 33
95 102 143 151 47 50 156 164 241 255 85 90 175 185 200 211 91 95 326 343
349 368 23 25 273 290 298 316 10 11 -1 25 -55 73 -418 369 -967 655 -1576
822 -126 34 -192 50 -346 82 -133 27 -370 59 -480 64 -109 5 -619 11 -623 8z"/>
</g>
</svg>
