<svg xmlns="http://www.w3.org/2000/svg" version="1.1" xmlns:xlink="http://www.w3.org/1999/xlink" xmlns:svgjs="http://svgjs.dev/svgjs" width="1000" height="515" viewBox="0 0 1000 515"><g transform="matrix(1,0,0,1,-0.6060389278223397,0.3994530917083807)"><svg viewBox="0 0 396 204" data-background-color="#ffffff" preserveAspectRatio="xMidYMid meet" height="515" width="1000" xmlns="http://www.w3.org/2000/svg" xmlns:xlink="http://www.w3.org/1999/xlink"><defs></defs><g id="tight-bounds" transform="matrix(1,0,0,1,0.23999141541764857,-0.15822996254080124)"><svg viewBox="0 0 395.52 204.3164599250816" height="204.3164599250816" width="395.52"><g><svg viewBox="0 0 395.52000000000004 204.31645992508163" height="204.3164599250816" width="395.52"><g transform="matrix(1,0,0,1,0,153.23831542855666)"><svg viewBox="0 0 395.52000000000004 51.07814449652497" height="51.07814449652497" width="395.52000000000004"><g><svg viewBox="0 0 395.52000000000004 51.07814449652497" height="51.07814449652497" width="395.52000000000004"><g><svg viewBox="0 0 395.52000000000004 51.07814449652497" height="51.07814449652497" width="395.52000000000004"><g transform="matrix(1,0,0,1,0,0)"><svg width="395.52000000000004" viewBox="4.75 -38.25 309.3299865722656 39.95000076293945" height="51.07814449652497" data-palette-color="#3c3f71"><path d="M4.75-36.8L15.9-36.8Q20.45-36.8 23.6-35.27 26.75-33.75 28.4-30.98 30.05-28.2 30.05-24.4L30.05-24.4Q30.05-22.15 29.38-19.88 28.7-17.6 27.23-15.75 25.75-13.9 23.28-12.78 20.8-11.65 17.2-11.65L17.2-11.65 12-11.65 12 0 4.75 0 4.75-36.8ZM12-18.7L17.15-18.7Q18.8-18.7 19.9-19.28 21-19.85 21.63-20.73 22.25-21.6 22.53-22.55 22.8-23.5 22.8-24.2L22.8-24.2Q22.8-24.75 22.63-25.68 22.45-26.6 21.9-27.55 21.35-28.5 20.23-29.15 19.1-29.8 17.2-29.8L17.2-29.8 12-29.8 12-18.7ZM36.55 0L36.55-36.8 61.65-36.8 61.65-29.8 43.8-29.8 43.8-21.95 59.6-21.95 59.6-14.95 43.8-14.95 43.8-7 62.35-7 62.35 0 36.55 0ZM103 1.5L102.8 1.5 74.89-23.7 77.05-22.5 77.19 0 69.84 0 69.84-38.25 70.14-38.25 97.44-13.15 95.84-13.85 95.69-36.8 103-36.8 103 1.5ZM145.64 1.5L145.44 1.5 117.54-23.7 119.69-22.5 119.84 0 112.49 0 112.49-38.25 112.79-38.25 140.09-13.15 138.49-13.85 138.34-36.8 145.64-36.8 145.64 1.5ZM164.69 0L164.69-11.45 151.14-36.8 160.09-36.8 169.59-17.7 167.44-17.55 176.79-36.8 185.74-36.8 171.94-11.45 171.94 0 164.69 0ZM202.89 1.7L188.09-36.55 196.59-36.55 204.44-13.45 203.29-13.95 210.14-31 213.49-21.05 202.89 1.7ZM221.84 1.6L206.54-36.55 213.74-36.55 222.79-14.2 221.49-14.4 228.24-36.55 236.04-36.55 221.84 1.6ZM242.39 0L242.39-36.8 249.64-36.8 249.64 0 242.39 0ZM281.53-33.45L278.78-27.9Q276.68-29.05 274.51-29.8 272.33-30.55 270.43-30.55L270.43-30.55Q268.08-30.55 266.73-29.6 265.38-28.65 265.38-26.75L265.38-26.75Q265.38-25.45 266.41-24.43 267.43-23.4 269.06-22.6 270.68-21.8 272.43-21.15L272.43-21.15Q274.03-20.55 275.61-19.73 277.18-18.9 278.43-17.68 279.68-16.45 280.43-14.63 281.18-12.8 281.18-10.15L281.18-10.15Q281.18-7.35 279.73-4.95 278.28-2.55 275.48-1.07 272.68 0.4 268.58 0.4L268.58 0.4Q266.48 0.4 264.31-0.03 262.13-0.45 260.03-1.33 257.93-2.2 255.98-3.55L255.98-3.55 259.18-9.2Q260.48-8.25 262.01-7.53 263.53-6.8 265.08-6.4 266.63-6 267.93-6L267.93-6Q269.23-6 270.56-6.38 271.88-6.75 272.76-7.65 273.63-8.55 273.63-10.15L273.63-10.15Q273.63-11.25 272.91-12.15 272.18-13.05 270.96-13.8 269.73-14.55 268.28-15.1L268.28-15.1Q266.58-15.75 264.78-16.6 262.98-17.45 261.41-18.68 259.83-19.9 258.86-21.73 257.88-23.55 257.88-26.2L257.88-26.2Q257.88-29.4 259.31-31.75 260.73-34.1 263.33-35.48 265.93-36.85 269.33-37L269.33-37Q273.78-37 276.56-35.95 279.33-34.9 281.53-33.45L281.53-33.45ZM288.28 0L288.28-36.8 313.38-36.8 313.38-29.8 295.53-29.8 295.53-21.95 311.33-21.95 311.33-14.95 295.53-14.95 295.53-7 314.08-7 314.08 0 288.28 0Z" opacity="1" transform="matrix(1,0,0,1,0,0)" fill="#3c3f71" class="undefined-text-0" data-fill-palette-color="primary" id="text-0"></path></svg></g></svg></g></svg></g></svg></g><g transform="matrix(1,0,0,1,148.6778759166802,0)"><svg viewBox="0 0 98.16424816663965 141.17999138839502" height="141.17999138839502" width="98.16424816663965"><g><svg xmlns="http://www.w3.org/2000/svg" xmlns:xlink="http://www.w3.org/1999/xlink" version="1.1" x="8" y="0" viewBox="18.671873092651367 0.6024448871612549 57.66254425048828 99.07955932617188" enable-background="new 0 0 100 100" xml:space="preserve" height="141.17999138839502" width="82.16424816663965" class="icon-icon-0" data-fill-palette-color="accent" id="icon-0"><path d="M37.77 30.529c0 0-1.495-3.209 0.968-4.162 2.466-0.954 5.716-3.024 10.735-1.641 2.853 0.977 3.17 4.357 1.874 5.418-1.212 1.09-1.632 1.344-3.162 0.663-1.532-0.683-3.172-1.783-6.675 0.43C39.108 32.626 38.506 32.454 37.77 30.529z" fill="#3c3f71" data-fill-palette-color="accent"></path><path d="M55.55 28.786c0 0-0.246-4.032 3.268-2.675 3.51 1.355 7.511 2.193 6.495 5.485-1.006 2.377-1.755 2.44-3.898 1.376-2.145-1.064-2.49-1.531-3.55-1.274C56.806 31.954 55.329 32.651 55.55 28.786z" fill="#3c3f71" data-fill-palette-color="accent"></path><path d="M33.973 32.066c0 0-3.234-2.869-6.495 1.866-1.365-0.092-7.922-0.807-4.291 5.766-0.838 1.911-3.278 6.45 5.12 7.595 0.16 1.161 0.344 4.197 4.375 3.415C33.862 33.6 33.973 32.066 33.973 32.066z" fill="#3c3f71" data-fill-palette-color="accent"></path><path d="M62.238 50.878c0.955 4.337 5.239-0.857 5.219-1.718 3.448 0.377 1.723-2.156 1.568-4.405 3.92-2.375 0.245-5.407-1.854-6.093 0.065-2.167-4.422-3.514-4.422-3.514L62.238 50.878z" fill="#3c3f71" data-fill-palette-color="accent"></path><circle cx="52.563" cy="58.804" r="7.9" fill="#3c3f71" data-fill-palette-color="accent"></circle><path d="M65.672 21.075c-0.33-0.435-0.839-0.97-1.481-1.56-1.29-1.182-3.132-2.592-5.26-3.974-1.79-1.166-3.516-2.137-4.972-2.833-1.455-0.697-2.658-1.113-3.335-1.172-0.178-0.017-0.313-0.008-0.398 0.014-0.084 0.022-0.103 0.047-0.112 0.057l0 0-0.011 0.041c-0.005 0.051 0.013 0.167 0.087 0.321 0.072 0.156 0.193 0.349 0.357 0.567 0.331 0.435 0.838 0.969 1.48 1.56 1.29 1.18 3.131 2.589 5.26 3.972 1.791 1.167 3.516 2.139 4.972 2.834 1.457 0.695 2.657 1.111 3.336 1.171 0.176 0.018 0.313 0.008 0.396-0.013 0.05-0.013 0.076-0.026 0.092-0.037l0.028-0.046 0.006-0.017c0.007-0.049-0.012-0.164-0.087-0.32C65.957 21.487 65.836 21.292 65.672 21.075z" fill="#3c3f71" data-fill-palette-color="accent"></path><path fill="#3c3f71" d="M63.521 19.565l2.752-4.234L56.141 8.744l-2.758 4.241c-0.005 0.004-0.009 0.007-0.01 0.011v0l-0.008 0.026c-0.005 0.031 0.009 0.106 0.054 0.204 0.048 0.099 0.123 0.221 0.229 0.358 0.21 0.278 0.53 0.616 0.938 0.991 0.817 0.748 1.987 1.643 3.336 2.521 1.134 0.738 2.229 1.355 3.154 1.796 0.921 0.441 1.686 0.707 2.114 0.743 0.112 0.01 0.198 0.005 0.251-0.008 0.032-0.009 0.047-0.016 0.057-0.023l0.02-0.029L63.521 19.565z" data-fill-palette-color="accent"></path><path d="M63.534 19.547c-0.443-0.061-1.166-0.32-2.03-0.733-0.925-0.441-2.02-1.059-3.154-1.797-1.35-0.877-2.519-1.772-3.338-2.521-0.408-0.374-0.728-0.713-0.937-0.989-0.106-0.138-0.184-0.262-0.228-0.359-0.048-0.1-0.061-0.172-0.057-0.204l0.009-0.026 0 0c0.002-0.003 0.006-0.007 0.011-0.012l2.595-3.992-0.263-0.17-2.76 4.241c-0.005 0.004-0.007 0.009-0.01 0.011l0 0-0.008 0.026c-0.005 0.033 0.009 0.106 0.054 0.204 0.048 0.099 0.123 0.221 0.229 0.359 0.21 0.277 0.532 0.615 0.938 0.99 0.817 0.748 1.987 1.643 3.336 2.521 1.135 0.738 2.229 1.355 3.154 1.796 0.921 0.441 1.686 0.707 2.114 0.743 0.112 0.011 0.198 0.006 0.252-0.008 0.031-0.009 0.046-0.016 0.057-0.022l0.019-0.03 0.002-0.009L63.534 19.547z" fill="#3c3f71" data-fill-palette-color="accent"></path><rect x="57.547" y="3.097" transform="matrix(0.8384 0.5451 -0.5451 0.8384 14.8441 -33.3104)" width="12.084" height="10.555" fill="#3c3f71" data-fill-palette-color="accent"></rect><path d="M65.512 15.508c-0.212-0.275-0.534-0.615-0.942-0.99-0.817-0.748-1.984-1.641-3.334-2.519-1.136-0.739-2.231-1.355-3.156-1.798-0.921-0.44-1.683-0.705-2.113-0.743-0.111-0.011-0.197-0.005-0.251 0.009-0.056 0.014-0.066 0.029-0.07 0.036h-0.002l-0.008 0.027c-0.004 0.031 0.008 0.104 0.055 0.203 0.048 0.099 0.124 0.221 0.229 0.359 0.208 0.277 0.53 0.615 0.937 0.99 0.821 0.75 1.989 1.642 3.336 2.52 1.139 0.739 2.229 1.356 3.156 1.797 0.921 0.441 1.684 0.706 2.113 0.743 0.111 0.01 0.199 0.005 0.254-0.009 0.031-0.008 0.046-0.016 0.057-0.023l0.019-0.029 0.002-0.011c0.003-0.03-0.006-0.105-0.054-0.203C65.688 15.769 65.613 15.647 65.512 15.508z" fill="#3c3f71" data-fill-palette-color="accent"></path><path d="M71.263 6.659c-0.209-0.277-0.532-0.616-0.938-0.991-0.818-0.75-1.985-1.642-3.336-2.52-1.136-0.739-2.229-1.356-3.155-1.797-0.921-0.442-1.687-0.706-2.114-0.743-0.113-0.01-0.2-0.006-0.25 0.008-0.057 0.015-0.067 0.031-0.072 0.037l0 0L61.39 0.681c-0.006 0.03 0.009 0.104 0.054 0.203 0.046 0.098 0.123 0.222 0.229 0.359 0.208 0.277 0.531 0.615 0.938 0.99 0.82 0.748 1.988 1.643 3.338 2.52 1.136 0.739 2.229 1.356 3.152 1.796 0.923 0.441 1.686 0.706 2.115 0.743 0.11 0.01 0.2 0.005 0.253-0.009 0.03-0.007 0.046-0.016 0.056-0.023l0.019-0.028 0.002-0.011c0.007-0.031-0.007-0.105-0.054-0.203C71.445 6.918 71.368 6.797 71.263 6.659z" fill="#3c3f71" data-fill-palette-color="accent"></path><path d="M49.925 88.987c0 0 24.008-13.67 26.245-0.132 2.235 13.537-18.979 9.774-23.347 6.754" fill="#3c3f71" data-fill-palette-color="accent"></path><path d="M44.936 89.164c0 0-24.829-12.117-26.2 1.535-1.368 13.653 19.56 8.549 23.729 5.257" fill="#3c3f71" data-fill-palette-color="accent"></path><circle cx="47.566" cy="93.965" r="5.5" fill="#3c3f71" data-fill-palette-color="accent"></circle></svg></g></svg></g><g><rect width="148.67787591668016" height="4.606279783341742" y="135.5737116050533" x="246.84212408331985" fill="#3c3f71" data-fill-palette-color="accent"></rect><rect width="148.67787591668016" height="4.606279783341742" y="135.5737116050533" x="2.842170943040401e-14" fill="#3c3f71" data-fill-palette-color="accent"></rect><rect width="148.67787591668016" height="4.606279783341742" y="126.3611520383698" x="246.84212408331985" fill="#3c3f71" data-fill-palette-color="accent"></rect><rect width="148.67787591668016" height="4.606279783341742" y="126.3611520383698" x="2.842170943040401e-14" fill="#3c3f71" data-fill-palette-color="accent"></rect></g></svg></g></svg><rect width="395.52" height="204.3164599250816" fill="none" stroke="none" visibility="hidden"></rect></g></svg></g></svg>